name Walk1.mot
datacolumns 19
datarows 20
range 1.21000000 1.22900000
endheader

                time	   L_ground_force_vx	   L_ground_force_vy	   L_ground_force_vz	   L_ground_force_px	   L_ground_force_py	   L_ground_force_pz	   R_ground_force_vx	   R_ground_force_vy	   R_ground_force_vz	   R_ground_force_px	   R_ground_force_py	   R_ground_force_pz	   L_ground_torque_x	   L_ground_torque_y	   L_ground_torque_z	   R_ground_torque_x	   R_ground_torque_y	   R_ground_torque_z	
          1.21000000	         18.70341241	        714.34306105	         33.76767373	         -0.18684419	          0.00000000	         -0.04420245	         -0.00143918	          0.16640610	          0.00258169	          0.00025777	          0.00000000	          0.00006820	          0.00000000	         -0.37938984	          0.00000000	          0.00000000	          0.00010264	          0.00000000	
          1.21100000	         19.20118967	        715.56109705	         33.86895065	         -0.18650961	          0.00000000	         -0.04417679	         -0.00213446	          0.17761851	          0.00282844	          0.00027068	          0.00000000	          0.00007150	          0.00000000	         -0.39519070	          0.00000000	          0.00000000	          0.00020668	          0.00000000	
          1.21200000	         19.70202652	        716.79529373	         33.96922608	         -0.18617785	          0.00000000	         -0.04414968	         -0.00288553	          0.18913929	          0.00308644	          0.00028367	          0.00000000	          0.00007482	          0.00000000	         -0.41057056	          0.00000000	          0.00000000	          0.00031953	          0.00000000	
          1.21300000	         20.20597693	        718.04551293	         34.06822419	         -0.18584896	          0.00000000	         -0.04412111	         -0.00369448	          0.20094951	          0.00335567	          0.00029670	          0.00000000	          0.00007814	          0.00000000	         -0.42554861	          0.00000000	          0.00000000	          0.00044155	          0.00000000	
          1.21400000	         20.71310053	        719.31160133	         34.16566321	         -0.18552298	          0.00000000	         -0.04409109	         -0.00456334	          0.21302729	          0.00363606	          0.00030972	          0.00000000	          0.00008144	          0.00000000	         -0.44014545	          0.00000000	          0.00000000	          0.00057308	          0.00000000	
          1.21500000	         21.22346401	        720.59338923	         34.26125822	         -0.18519993	          0.00000000	         -0.04405961	         -0.00549410	          0.22534761	          0.00392748	          0.00032266	          0.00000000	          0.00008472	          0.00000000	         -0.45438345	          0.00000000	          0.00000000	          0.00071447	          0.00000000	
          1.21600000	         21.73714207	        721.89068906	         34.35472367	         -0.18487984	          0.00000000	         -0.04402666	         -0.00648866	          0.23788213	          0.00422977	          0.00033548	          0.00000000	          0.00008794	          0.00000000	         -0.46828720	          0.00000000	          0.00000000	          0.00086605	          0.00000000	
          1.21700000	         22.25421804	        723.20329431	         34.44577577	         -0.18456275	          0.00000000	         -0.04399226	         -0.00754884	          0.25059900	          0.00454268	          0.00034810	          0.00000000	          0.00009111	          0.00000000	         -0.48188380	          0.00000000	          0.00000000	          0.00102814	          0.00000000	
          1.21800000	         22.77478405	        724.53097979	         34.53413470	         -0.18424868	          0.00000000	         -0.04395640	         -0.00867636	          0.26346262	          0.00486591	          0.00036045	          0.00000000	          0.00009419	          0.00000000	         -0.49520277	          0.00000000	          0.00000000	          0.00120104	          0.00000000	
          1.21900000	         23.29894096	        725.87350310	         34.61952673	         -0.18393766	          0.00000000	         -0.04391907	         -0.00987282	          0.27643353	          0.00519907	          0.00037247	          0.00000000	          0.00009717	          0.00000000	         -0.50827578	          0.00000000	          0.00000000	          0.00138505	          0.00000000	
          1.22000000	         23.82679798	        727.23060723	         34.70168618	         -0.18362970	          0.00000000	         -0.04388029	         -0.01113969	          0.28946811	          0.00554172	          0.00038406	          0.00000000	          0.00010002	          0.00000000	         -0.52113588	          0.00000000	          0.00000000	          0.00158043	          0.00000000	
          1.22100000	         24.35847221	        728.60202341	         34.78035741	         -0.18332482	          0.00000000	         -0.04384005	         -0.01247828	          0.30251845	          0.00589333	          0.00039515	          0.00000000	          0.00010273	          0.00000000	         -0.53381657	          0.00000000	          0.00000000	          0.00178745	          0.00000000	
          1.22200000	         24.89408816	        729.98747359	         34.85529664	         -0.18302304	          0.00000000	         -0.04379838	         -0.01388972	          0.31553212	          0.00625327	          0.00040563	          0.00000000	          0.00010527	          0.00000000	         -0.54635085	          0.00000000	          0.00000000	          0.00200632	          0.00000000	
          1.22300000	         25.43377747	        731.38667217	         34.92627371	         -0.18272436	          0.00000000	         -0.04375529	         -0.01537495	          0.32845197	          0.00662083	          0.00041541	          0.00000000	          0.00010760	          0.00000000	         -0.55877029	          0.00000000	          0.00000000	          0.00223725	          0.00000000	
          1.22400000	         25.97767885	        732.79932667	         34.99307349	         -0.18242881	          0.00000000	         -0.04371080	         -0.01693471	          0.34121592	          0.00699521	          0.00042438	          0.00000000	          0.00010971	          0.00000000	         -0.57110452	          0.00000000	          0.00000000	          0.00248039	          0.00000000	
          1.22500000	         26.52593836	        734.22513763	         35.05549691	         -0.18213637	          0.00000000	         -0.04366495	         -0.01856947	          0.35375677	          0.00737548	          0.00043244	          0.00000000	          0.00011156	          0.00000000	         -0.58338094	          0.00000000	          0.00000000	          0.00273588	          0.00000000	
          1.22600000	         27.07870972	        735.66379789	         35.11336139	         -0.18184706	          0.00000000	         -0.04361778	         -0.02027944	          0.36600199	          0.00776063	          0.00043946	          0.00000000	          0.00011312	          0.00000000	         -0.59562504	          0.00000000	          0.00000000	          0.00300382	          0.00000000	
          1.22700000	         27.63615447	        737.11499143	         35.16650114	         -0.18156087	          0.00000000	         -0.04356933	         -0.02206457	          0.37787355	          0.00814952	          0.00044531	          0.00000000	          0.00011436	          0.00000000	         -0.60786091	          0.00000000	          0.00000000	          0.00328425	          0.00000000	
          1.22800000	         28.19844181	        738.57839221	         35.21476733	         -0.18127780	          0.00000000	         -0.04351963	         -0.02392445	          0.38928769	          0.00854090	          0.00044987	          0.00000000	          0.00011525	          0.00000000	         -0.62011208	          0.00000000	          0.00000000	          0.00357717	          0.00000000	
          1.22900000	         28.76574766	        740.05366295	         35.25802854	         -0.18099786	          0.00000000	         -0.04346875	         -0.02585835	          0.40015476	          0.00893336	          0.00045300	          0.00000000	          0.00011574	          0.00000000	         -0.63240221	          0.00000000	          0.00000000	          0.00388254	          0.00000000	
